<svg version="1.1" id="Camada_1" xmlns="http://www.w3.org/2000/svg" x="0" y="0" viewBox="0 0 1000 186.2" style="enable-background:new 0 0 1000 186.2" xml:space="preserve"><style>.st0,.st1{fill:#f46152}.st1{fill-rule:evenodd;clip-rule:evenodd}</style><path class="st0" d="M115.7 51.9 142.1 37c-9-23.3-31.5-37-61.7-37C30.7 0 0 31.7 0 77.9c0 50.4 40.7 78.3 79.5 78.3 35.6 0 58.9-17.1 68.9-31.5V70.4H71.8v25h47.9l-.2 17.1s-14.1 13.9-39.5 13.9c-27.4 0-43.1-19.2-43.1-49.4 0-30.5 15.7-49.6 42.7-49.6 16.1 0 28 9.9 36.1 24.5zM164.8 184.9v-24.5c5.8 1 9.6 1.2 13.6 1.2 12 0 21-4 25-12.1l.8-2.9-47.6-96.1h37.8l24 58.9c1.8 4.2 2.4 6.7 3.2 10.8h.6c.6-3.5 1.4-6 3-10.6l23-59.1h35.4l-45.2 100.7c-11.2 25-27.8 35-56.6 35-4.4 0-11.4-.4-17-1.3zM327.5 69.8V50.5h-33.2v96.3h34.2V96.9c0-15.6 8-24.6 21.4-24.6 12.8 0 19.2 7.7 19.2 23.5v51h34.2V96.3c0-15.2 8-24.1 21.4-24.1 12.8 0 19.2 7.7 19.2 23.5v51h34.2v-57c0-27.1-14-42.2-39-42.2-17.6 0-31 7.5-39.2 22.3-6-15-17.8-22.3-35.4-22.3-17.8.1-30.2 7.4-37 22.3z"/><path class="st1" d="M530.5 66.7V50.5h-33.2v133.8h34.2v-51c8.4 10.2 21.6 16.4 38.4 16.4 30.4 0 51.2-20.4 51.2-51.4 0-30.6-19.8-50.6-49.8-50.6-17.6-.1-32.6 6.5-40.8 19zm28 3.1c17.2 0 27.2 10.4 27.2 28.5s-10.4 29.3-27.4 29.3c-16.6 0-27.6-10.6-27.6-26.8v-4c0-17.2 11-27 27.8-27zM634.3 120.4c0-8.9 3.8-16.2 10.8-21 7-4.6 17-7.5 34.8-9.2l37.2-3.3V84c0-10.8-7.6-16-21.2-16-13.8 0-22 5.2-23.4 14.8h-35c2.6-21.9 24.8-35.2 58.6-35.2 38 0 55.4 13.3 55.4 41.2v29.8c0 12.3.8 21.4 2.4 28.1h-33.8c-.8-4.6-1.4-10.6-1.4-16.4-6.6 12.1-22.2 19.3-43.4 19.3-25.2.1-41-11.1-41-29.2zm83.6-11.8v-6.2l-27.6 2.7c-15.2 1.7-21 5.6-21 13.1 0 7.1 7.2 11.4 19 11.4 17.6 0 29.6-8.2 29.6-21z"/><path class="st0" d="m763.4 126.7 18.4-15c9.4 10.8 23.6 16.6 44.4 16.6 14 0 20.2-2.9 20.2-8.9 0-5.4-3-7.5-14.4-8.7l-26.6-2.5c-24.4-2.9-36-12.7-36-29.6 0-19.6 18.8-31 52.4-31 24.2 0 43.8 6.5 55 18.3l-16 15.8C850.6 72.8 838 68.6 820 68.6c-13.2 0-19.4 2.5-19.4 8.1 0 4.6 3.6 6.9 12.8 7.9l29.4 2.9c24.6 2.7 34.4 12.5 34.4 29.5 0 20.4-17.8 32.7-52.6 32.7-27.8 0-48.8-7.9-61.2-23zM904.6 111.7l-18.4 15c12.4 15 33.4 22.9 61.2 22.9 34.8 0 52.6-12.3 52.6-32.7 0-16.9-9.8-26.8-34.4-29.5l-29.4-2.9c-9.2-1-12.8-3.3-12.8-7.9 0-5.6 6.2-8.1 19.4-8.1 18 0 30.6 4.2 40.8 13.1l16-15.8c-11.2-11.7-30.8-18.3-55-18.3-33.6 0-52.4 11.4-52.4 31 0 16.9 11.6 26.8 36 29.6l26.6 2.5c11.4 1.2 14.4 3.3 14.4 8.7 0 6-6.2 8.9-20.2 8.9-20.8.1-35-5.7-44.4-16.5z"/></svg>